<svg width="24" height="22" viewBox="0 0 24 22" fill="none" xmlns="http://www.w3.org/2000/svg">
<path d="M13.1915 2.73497L13.1972 2.72972L13.2028 2.7243C13.8845 2.06083 14.7122 1.56649 15.6196 1.28101C16.527 0.995533 17.4887 0.926871 18.4274 1.08054C19.3662 1.23421 20.2558 1.60593 21.0248 2.16584C21.7935 2.72553 22.4203 3.45767 22.8548 4.30347C23.4249 5.42422 23.623 6.69754 23.4203 7.93855C23.2175 9.17981 22.6243 10.3241 21.7268 11.2052L21.7267 11.2051L21.7184 11.2137L12.3586 20.8515C12.312 20.8994 12.2562 20.9375 12.1946 20.9635C12.1331 20.9895 12.0669 21.0029 12.0001 21.0029C11.9332 21.0029 11.867 20.9895 11.8055 20.9635C11.744 20.9375 11.6884 20.8995 11.6418 20.8517C11.6417 20.8517 11.6416 20.8516 11.6416 20.8515L2.26883 11.1957L2.26892 11.1957L2.26089 11.1877C1.3672 10.3077 0.777254 9.16565 0.576671 7.9275C0.376087 6.68935 0.57531 5.4195 1.14542 4.30227L1.14543 4.30227L1.14675 4.29964C1.57366 3.45074 2.19697 2.71595 2.9649 2.15633C3.73283 1.59671 4.62322 1.22841 5.56208 1.08203L5.56209 1.08207L5.56854 1.08098C6.51348 0.920959 7.48297 0.988782 8.39643 1.27881C9.30988 1.56885 10.1409 2.07271 10.8205 2.74853L10.8283 2.75629L10.8364 2.76371L11.6634 3.51671L12.0008 3.82388L12.3375 3.51597L13.1915 2.73497Z" fill="white" stroke="#C8CBD0"/>
</svg>
